<?xml version="1.0" standalone="no"?>
<!DOCTYPE svg PUBLIC "-//W3C//DTD SVG 20010904//EN"
 "http://www.w3.org/TR/2001/REC-SVG-20010904/DTD/svg10.dtd">
<svg version="1.0" xmlns="http://www.w3.org/2000/svg"
 width="366.000000pt" height="366.000000pt" viewBox="0 0 366.000000 366.000000"
 preserveAspectRatio="xMidYMid meet">
<metadata>
Created by potrace 1.11, written by Peter Selinger 2001-2013
</metadata>
<g transform="translate(0.000000,366.000000) scale(0.100000,-0.100000)"
fill="#000000" stroke="none">
<path d="M1770 3613 c-448 -19 -875 -203 -1187 -511 -242 -238 -394 -504 -484
-846 -16 -61 -28 -112 -28 -114 1 -4 -12 -114 -17 -142 -6 -34 -6 -297 0 -340
3 -19 8 -55 11 -80 35 -257 135 -519 282 -736 85 -127 125 -175 237 -286 236
-235 569 -414 881 -474 11 -2 31 -6 45 -9 24 -4 43 -7 150 -20 59 -8 254 -8
338 0 37 3 112 15 167 25 685 132 1231 649 1394 1324 17 67 33 144 36 171 3
28 9 66 11 85 6 41 6 306 0 335 -2 11 -7 46 -11 79 -9 78 -11 88 -39 197 -161
636 -661 1132 -1298 1288 -134 33 -163 38 -283 47 -116 8 -144 9 -205 7z m349
-92 c663 -115 1196 -602 1371 -1255 10 -39 22 -94 25 -121 4 -28 9 -53 11 -56
22 -37 21 -482 -1 -519 -1 -3 -6 -26 -9 -51 -3 -25 -15 -80 -26 -122 -127
-483 -458 -888 -905 -1106 -292 -142 -584 -196 -920 -168 -300 24 -628 153
-880 346 -324 248 -568 643 -639 1036 -3 17 -8 41 -11 54 -31 154 -24 428 15
619 148 727 754 1274 1505 1358 28 3 51 7 53 8 11 11 310 -6 411 -23z"/>
<path d="M1967 3383 c-5 -8 -12 -100 -23 -278 -2 -49 -7 -114 -10 -142 -3 -34
-1 -53 6 -53 5 0 10 10 10 23 0 15 3 18 9 9 4 -7 6 19 4 60 -4 83 3 138 19
138 5 0 8 -6 5 -14 -6 -15 17 -16 30 -1 4 4 2 5 -4 1 -7 -4 -13 -2 -13 4 0 9
15 10 51 6 28 -4 55 -3 61 0 16 10 -12 24 -48 24 -17 0 -45 3 -62 6 -30 6 -30
7 -28 63 5 89 5 93 16 86 6 -4 7 -12 4 -18 -4 -7 -3 -8 1 -4 14 12 15 37 2 34
-7 -1 -12 7 -12 18 0 11 5 19 11 18 7 -1 41 -5 77 -8 49 -5 66 -3 70 7 3 9 -3
14 -17 14 -11 0 -51 4 -88 7 -37 4 -69 4 -71 0z"/>
<path d="M1799 3320 c-11 -61 -16 -71 -34 -64 -10 4 -15 0 -15 -10 0 -11 9
-16 26 -16 15 0 23 -4 18 -11 -10 -17 -4 -258 8 -284 6 -13 20 -25 32 -27 11
-2 20 -9 18 -16 -1 -8 2 -11 8 -7 6 3 8 11 5 16 -4 5 -1 9 4 9 6 0 11 5 11 10
0 6 -11 10 -25 10 -23 0 -30 10 -26 33 1 5 -3 6 -9 2 -8 -5 -10 35 -8 129 2
114 5 135 18 134 38 -3 60 3 60 16 0 11 -11 13 -41 11 -38 -3 -41 -2 -37 20 3
13 1 30 -3 37 -5 7 -9 11 -10 8z"/>
<path d="M2000 3260 c-9 -6 -10 -10 -3 -10 6 0 15 5 18 10 8 12 4 12 -15 0z"/>
<path d="M1620 3253 c-47 -17 -66 -102 -32 -141 9 -12 33 -30 52 -40 19 -11
34 -25 32 -32 -1 -6 2 -9 7 -6 25 16 21 -73 -5 -95 -16 -13 -51 -16 -81 -5
-17 5 -23 3 -23 -7 0 -20 60 -36 90 -23 14 6 29 16 33 23 5 8 13 11 18 8 5 -4
6 -11 3 -17 -5 -7 -2 -8 5 -3 9 5 10 10 2 18 -13 13 -15 47 -3 47 4 0 8 13 7
29 0 16 -3 27 -7 24 -7 -4 -12 12 -9 30 0 4 -3 7 -9 7 -17 0 -79 47 -72 55 4
5 2 5 -4 2 -7 -4 -16 -1 -21 6 -12 16 -16 70 -4 63 5 -3 8 2 7 11 0 9 5 18 13
21 9 3 11 0 7 -9 -4 -8 -1 -6 7 4 13 15 19 17 37 7 26 -14 37 -6 20 15 -12 15
-41 18 -70 8z"/>
<path d="M1357 3210 c-41 -32 -61 -99 -53 -173 4 -34 8 -70 9 -79 1 -9 4 -15
8 -13 3 3 11 -7 17 -20 7 -14 16 -25 22 -25 6 0 9 -4 6 -8 -3 -5 16 -9 41 -11
26 -1 51 -5 56 -8 6 -3 7 -2 4 3 -3 6 8 16 24 23 16 7 29 17 29 23 0 6 -7 7
-17 3 -59 -25 -91 -28 -117 -12 -30 20 -52 60 -57 102 -3 24 0 30 16 32 11 2
31 5 45 7 108 21 106 21 91 0 -8 -10 -2 -6 13 9 24 24 27 33 21 68 -10 59 -48
99 -95 99 -22 0 -48 -8 -63 -20z m78 -10 c-3 -5 0 -7 8 -4 15 6 31 -22 21 -37
-3 -5 0 -8 7 -7 6 2 15 -9 19 -24 9 -29 3 -32 -80 -42 -19 -2 -48 -7 -64 -11
l-29 -8 8 39 c9 50 23 76 37 68 6 -4 8 -3 4 4 -3 6 2 15 11 21 23 13 66 14 58
1z"/>
<path d="M1353 3145 c0 -8 4 -12 9 -9 5 3 6 10 3 15 -9 13 -12 11 -12 -6z"/>
<path d="M1853 3205 c0 -8 4 -12 9 -9 5 3 6 10 3 15 -9 13 -12 11 -12 -6z"/>
<path d="M1695 3201 c-3 -5 -2 -12 3 -15 5 -3 9 1 9 9 0 17 -3 19 -12 6z"/>
<path d="M2232 3194 c-53 -37 -85 -159 -63 -239 6 -22 22 -53 37 -68 24 -26
31 -28 78 -23 81 9 85 10 80 17 -9 15 31 79 45 74 10 -4 11 -2 3 8 -12 15 -5
58 12 69 8 5 7 8 -1 8 -8 0 -13 13 -13 30 0 44 -23 93 -55 118 -33 26 -91 29
-123 6z m88 -14 c0 -5 6 -9 12 -7 7 1 23 -18 36 -43 54 -104 -15 -268 -103
-246 -25 6 -66 36 -50 36 4 0 -1 7 -10 16 -9 10 -14 25 -12 36 3 10 1 16 -4
13 -4 -3 -8 11 -8 32 1 50 8 75 20 68 5 -3 6 1 3 10 -7 16 19 62 45 82 19 15
71 17 71 3z"/>
<path d="M2260 3146 c0 -2 8 -10 18 -17 15 -13 16 -12 3 4 -13 16 -21 21 -21
13z"/>
<path d="M2231 3127 c-8 -10 -7 -14 2 -14 8 0 14 6 14 14 0 7 -1 13 -2 13 -2
0 -8 -6 -14 -13z"/>
<path d="M2197 3055 c-4 -8 -3 -16 1 -19 4 -3 9 4 9 15 2 23 -3 25 -10 4z"/>
<path d="M1197 3182 c-5 -7 -5 -22 -1 -35 6 -21 6 -22 -14 -4 -11 10 -34 19
-50 19 -76 2 -125 -77 -120 -191 2 -38 5 -68 8 -66 3 2 12 -10 19 -27 17 -37
67 -69 104 -65 27 3 87 50 87 68 0 5 5 9 10 9 6 0 10 -29 10 -66 0 -62 -2 -68
-35 -101 -30 -30 -40 -34 -77 -31 -25 1 -42 -2 -41 -7 2 -6 20 -11 40 -13 48
-4 99 22 115 58 6 16 17 26 24 23 7 -2 15 0 19 6 3 7 0 8 -9 5 -12 -5 -16 1
-16 24 0 17 6 33 13 35 10 4 10 6 0 6 -7 1 -13 6 -13 12 0 5 6 7 13 3 9 -5 9
-4 0 6 -10 11 -9 16 5 27 15 11 15 12 1 7 -26 -8 -35 17 -13 34 16 12 16 14 2
9 -13 -5 -19 1 -24 28 -3 18 -3 39 2 46 4 8 3 10 -4 5 -8 -5 -12 1 -13 16 -4
64 -5 74 -11 83 -3 6 -4 18 -3 28 2 9 -1 17 -5 17 -5 0 -10 10 -12 23 -2 15
-5 18 -11 9z m-19 -65 c12 -13 19 -27 15 -30 -3 -4 -2 -7 4 -7 15 0 35 -114
27 -155 -14 -77 -95 -113 -141 -62 -35 38 -55 85 -30 71 6 -4 4 2 -7 14 -15
18 -17 30 -11 78 12 99 90 148 143 91z"/>
<path d="M1046 2998 c3 -5 10 -6 15 -3 13 9 11 12 -6 12 -8 0 -12 -4 -9 -9z"/>
<path d="M854 3165 c-4 -8 -3 -23 0 -32 6 -15 8 -15 22 -2 8 9 12 23 8 32 -8
21 -23 22 -30 2z"/>
<path d="M1610 3159 c0 -5 5 -7 10 -4 6 3 10 8 10 11 0 2 -4 4 -10 4 -5 0 -10
-5 -10 -11z"/>
<path d="M886 3122 c-3 -5 1 -9 9 -9 8 0 12 4 9 9 -3 4 -7 8 -9 8 -2 0 -6 -4
-9 -8z"/>
<path d="M2523 3117 c-92 -52 -118 -240 -43 -307 21 -18 27 -30 20 -38 -7 -9
-7 -9 2 -2 17 14 81 12 97 -2 11 -11 12 -10 6 0 -4 9 3 24 19 41 45 47 64 99
64 175 0 67 -1 70 -39 107 -43 42 -83 50 -126 26z m81 -19 c53 -23 74 -88 56
-173 -19 -94 -99 -155 -143 -110 -8 8 -17 12 -20 9 -6 -7 -37 60 -37 82 0 10
10 29 23 43 l22 26 -22 -19 c-22 -18 -23 -18 -23 -1 0 41 26 98 57 125 37 33
50 36 87 18z"/>
<path d="M2495 3040 c-3 -5 -1 -10 4 -10 6 0 11 5 11 10 0 6 -2 10 -4 10 -3 0
-8 -4 -11 -10z"/>
<path d="M897 3062 c-4 -6 11 -68 34 -139 23 -70 42 -132 43 -137 3 -20 17
-36 31 -36 12 0 12 4 -1 28 -17 33 -18 45 -1 37 6 -4 5 -1 -3 7 -17 15 -45 87
-36 95 3 3 -1 12 -9 19 -7 8 -12 25 -11 39 2 13 0 22 -5 20 -4 -3 -14 14 -21
37 -9 25 -17 37 -21 30z"/>
<path d="M1513 3055 c0 -8 4 -12 9 -9 5 3 6 10 3 15 -9 13 -12 11 -12 -6z"/>
<path d="M1440 3020 c-9 -6 -10 -10 -3 -10 6 0 15 5 18 10 8 12 4 12 -15 0z"/>
<path d="M2995 2950 c-39 -79 -62 -103 -52 -55 2 14 2 24 0 21 -3 -2 -18 10
-34 29 -16 18 -41 36 -54 39 -30 8 -89 -17 -109 -45 -7 -10 -16 -16 -20 -11
-4 4 -6 3 -5 -3 4 -15 -11 -56 -19 -51 -15 9 -13 -132 1 -161 19 -36 49 -63
76 -68 11 -2 26 -7 31 -10 6 -3 10 -2 10 3 0 6 7 12 15 16 13 4 13 2 5 -14 -5
-10 -10 -26 -10 -34 0 -28 16 -17 30 19 8 19 17 35 22 35 4 0 7 3 7 8 -3 20 2
32 13 26 7 -4 8 -3 4 4 -7 11 58 162 69 162 4 0 4 -4 0 -9 -3 -5 -1 -12 4 -16
6 -3 8 5 5 19 -2 15 1 26 12 30 8 3 13 10 9 16 -3 5 6 32 20 59 26 52 31 71
17 71 -4 0 -26 -36 -47 -80z m-111 -5 c10 -8 16 -21 13 -29 -4 -10 -1 -13 9
-9 15 5 18 -10 16 -74 -1 -41 -46 -128 -75 -147 -33 -22 -82 -17 -106 11 -12
12 -18 23 -14 23 4 0 2 5 -5 12 -7 7 -12 18 -12 26 0 12 3 12 18 1 15 -12 16
-12 5 2 -7 9 -9 20 -5 24 4 5 1 5 -5 1 -20 -11 -16 24 5 47 9 11 11 17 5 13
-18 -10 -16 2 8 40 11 19 25 32 30 29 5 -4 6 0 3 8 -11 30 76 48 110 22z"/>
<path d="M2790 2920 c0 -5 5 -10 11 -10 5 0 7 5 4 10 -3 6 -8 10 -11 10 -2 0
-4 -4 -4 -10z"/>
<path d="M2770 2879 c0 -5 5 -7 10 -4 6 3 10 8 10 11 0 2 -4 4 -10 4 -5 0 -10
-5 -10 -11z"/>
<path d="M645 3006 c-37 -17 -94 -77 -128 -135 l-26 -45 22 -30 c12 -17 32
-39 44 -49 13 -10 20 -23 17 -29 -4 -7 -2 -8 4 -4 7 4 12 3 12 -3 0 -5 16 -24
35 -42 18 -18 32 -36 30 -40 -3 -4 2 -10 11 -13 8 -3 12 -11 8 -17 -4 -7 -3
-9 3 -6 5 3 27 -14 48 -38 21 -25 41 -45 44 -45 3 0 17 18 31 40 15 24 30 38
38 35 7 -3 10 0 7 6 -8 12 14 71 24 65 4 -3 7 3 8 12 0 9 4 45 8 78 6 49 4 72
-11 110 -18 47 -24 58 -51 88 -7 8 -9 17 -5 21 4 5 2 5 -4 2 -7 -4 -18 1 -25
10 -16 19 -71 43 -96 43 -10 -1 -31 -7 -48 -14z m115 -41 c46 -29 103 -118 97
-152 -3 -13 0 -20 6 -16 7 4 8 -13 4 -49 -6 -58 -32 -120 -75 -176 -23 -30
-26 -31 -37 -15 -7 10 -11 21 -8 26 2 4 0 6 -5 5 -8 -2 -60 50 -105 107 -4 6
-33 37 -62 70 -30 33 -55 62 -55 65 1 17 49 85 59 82 7 -1 9 2 6 8 -8 12 25
41 38 33 4 -2 6 1 5 9 -2 7 3 12 10 11 6 -2 12 2 12 7 0 20 70 10 110 -15z"/>
<path d="M615 2920 c3 -5 8 -10 11 -10 2 0 4 5 4 10 0 6 -5 10 -11 10 -5 0 -7
-4 -4 -10z"/>
<path d="M573 2885 c0 -8 4 -12 9 -9 5 3 6 10 3 15 -9 13 -12 11 -12 -6z"/>
<path d="M890 2860 c0 -5 5 -10 11 -10 5 0 7 5 4 10 -3 6 -8 10 -11 10 -2 0
-4 -4 -4 -10z"/>
<path d="M2660 2820 c-9 -6 -10 -10 -3 -10 6 0 15 5 18 10 8 12 4 12 -15 0z"/>
<path d="M2966 2817 c3 -10 9 -15 12 -12 3 3 0 11 -7 18 -10 9 -11 8 -5 -6z"/>
<path d="M2950 2801 c0 -6 4 -13 10 -16 6 -3 7 1 4 9 -7 18 -14 21 -14 7z"/>
<path d="M2630 2796 c0 -2 8 -10 18 -17 15 -13 16 -12 3 4 -13 16 -21 21 -21
13z"/>
<path d="M2530 2759 c0 -5 5 -7 10 -4 6 3 10 8 10 11 0 2 -4 4 -10 4 -5 0 -10
-5 -10 -11z"/>
<path d="M2944 2762 c4 -3 14 -7 22 -8 9 -1 13 0 10 4 -4 3 -14 7 -22 8 -9 1
-13 0 -10 -4z"/>
<path d="M890 2716 c0 -2 8 -10 18 -17 15 -13 16 -12 3 4 -13 16 -21 21 -21
13z"/>
<path d="M2405 2666 c-6 -7 -70 -86 -143 -176 -164 -200 -222 -282 -228 -318
-2 -15 2 -50 11 -77 l15 -50 -47 -70 c-25 -38 -77 -114 -115 -168 l-70 -98
-62 88 c-34 49 -86 124 -115 167 l-53 78 18 56 c37 120 -18 266 -150 397 -134
133 -285 192 -334 131 -45 -58 -18 -239 55 -379 71 -135 208 -237 318 -237
l51 0 115 -162 c64 -90 118 -168 122 -174 6 -11 -148 -225 -236 -327 -28 -32
-96 -99 -153 -148 -57 -49 -113 -104 -125 -121 -21 -29 -22 -35 -11 -87 15
-74 35 -90 104 -84 84 7 97 25 175 231 19 52 53 126 75 165 49 87 200 317 207
317 7 0 97 -139 177 -271 53 -86 72 -130 134 -293 42 -109 74 -146 133 -147
86 -3 93 2 113 76 17 65 2 96 -78 167 -180 158 -268 256 -407 455 l-43 62 123
173 124 172 52 2 c62 1 92 19 138 82 58 79 275 447 275 466 0 10 -68 -78 -151
-195 -172 -243 -170 -241 -187 -231 -12 8 15 50 240 376 37 55 65 102 62 105
-3 3 -9 -1 -14 -9 -4 -8 -17 -25 -27 -37 -10 -12 -79 -108 -153 -212 -124
-175 -151 -204 -163 -183 -3 4 67 112 154 241 88 129 157 237 154 240 -4 3 -9
1 -13 -5 -15 -22 -315 -439 -321 -446 -3 -4 -12 -3 -20 1 -13 8 58 120 230
362 25 36 52 75 58 87 13 24 2 30 -14 8z"/>
<path d="M2870 2620 c-11 -7 -11 -10 -2 -10 7 0 10 -5 6 -12 -4 -7 -3 -8 5 -4
6 4 9 11 6 16 -3 4 1 11 7 13 7 3 9 6 3 6 -5 0 -17 -4 -25 -9z"/>
<path d="M706 978 c-14 -46 -34 -114 -45 -153 l-21 -70 37 -33 c21 -18 43 -37
48 -41 6 -5 23 -2 38 6 15 7 32 11 37 8 5 -3 7 0 4 8 -3 8 1 21 8 28 7 8 15
23 16 34 2 11 7 22 11 25 15 10 5 144 -13 179 -18 34 -73 91 -88 91 -4 0 -18
-37 -32 -82z m55 52 c11 -6 31 -30 46 -53 32 -51 36 -139 9 -202 -34 -80 -71
-95 -125 -49 -30 25 -44 74 -21 74 5 0 7 6 4 14 -3 8 -1 17 5 20 6 4 7 14 4
23 -4 9 -2 14 3 11 5 -4 10 5 11 18 4 45 6 54 14 54 4 0 6 6 6 13 -2 17 14 87
20 87 2 0 13 -5 24 -10z"/>
<path d="M3081 1046 c-24 -29 -24 -79 -1 -109 16 -20 26 -25 33 -18 15 15 33
14 51 -5 24 -23 19 -62 -10 -91 -14 -14 -23 -27 -20 -30 3 -3 17 8 31 23 22
24 26 36 22 67 -7 54 -24 70 -63 62 -26 -4 -35 -2 -43 14 -16 29 -13 49 9 71
11 11 20 22 20 25 0 10 -18 5 -29 -9z"/>
<path d="M2980 965 c7 -19 6 -27 -8 -35 -14 -10 -14 -11 -1 -7 19 6 27 -8 59
-116 20 -66 27 -77 44 -75 11 2 21 8 23 15 3 7 -3 10 -15 6 -17 -4 -23 5 -41
59 -12 36 -23 74 -26 86 -2 12 -6 26 -9 30 -3 5 4 16 15 26 12 10 18 20 15 24
-4 3 -12 0 -18 -6 -16 -16 -28 -15 -28 3 0 8 -4 15 -10 15 -6 0 -6 -9 0 -25z"/>
<path d="M890 905 c0 -8 5 -15 10 -15 6 0 10 7 10 15 0 8 -4 15 -10 15 -5 0
-10 -7 -10 -15z"/>
<path d="M2871 853 c-14 -26 -20 -32 -21 -19 0 11 -3 17 -6 14 -8 -9 48 -238
59 -238 5 0 6 8 2 18 -31 75 -47 212 -24 212 5 0 8 4 4 9 -3 6 4 15 15 21 17
9 23 6 39 -21 11 -17 22 -48 26 -68 10 -58 26 -113 31 -108 8 7 -34 168 -51
193 -23 36 -51 30 -74 -13z"/>
<path d="M880 838 c0 -3 -9 -50 -20 -103 -19 -90 -26 -154 -16 -144 5 4 14 53
22 114 3 22 10 60 15 84 5 24 7 46 4 49 -3 3 -5 3 -5 0z"/>
<path d="M2733 798 c-24 -32 -24 -41 1 -18 l28 25 19 -24 c25 -30 24 -58 -1
-71 -46 -25 -65 -110 -32 -149 24 -29 57 -18 70 22 9 30 10 30 11 7 1 -19 3
-22 11 -10 5 9 5 19 0 25 -5 6 -12 31 -14 56 -8 63 -22 117 -36 134 -15 18
-44 19 -57 3z m78 -201 c-14 -36 -40 -46 -58 -21 -21 29 -10 84 24 113 l28 24
8 -44 c5 -27 4 -55 -2 -72z"/>
<path d="M932 765 c-23 -29 -37 -110 -27 -154 13 -62 63 -99 93 -69 17 17 5
-48 -14 -79 -18 -29 -41 -29 -71 -1 -13 12 -23 17 -23 11 0 -22 38 -44 73 -41
20 1 33 6 30 10 -2 5 0 14 5 21 6 7 13 32 17 57 8 55 13 85 15 85 1 0 3 18 5
40 2 22 6 55 9 73 3 20 1 30 -5 26 -5 -3 -19 6 -30 20 -26 33 -52 33 -77 1z
m48 4 c0 -5 5 -7 10 -4 16 10 32 -45 31 -103 -1 -67 -23 -112 -55 -112 -26 0
-53 41 -41 61 5 7 4 10 -2 6 -6 -4 -10 6 -11 24 0 20 3 27 11 23 9 -5 9 -4 1
5 -14 15 -6 63 9 54 6 -3 7 -1 3 5 -4 6 1 20 11 32 19 22 33 26 33 9z"/>
<path d="M2655 748 c-13 -30 -14 -31 -15 -9 0 13 -2 22 -5 19 -7 -6 23 -206
35 -233 6 -15 8 -12 5 13 -2 18 -6 45 -9 60 -13 65 -15 102 -7 102 5 0 7 9 4
20 -3 12 2 29 12 40 11 12 13 20 6 20 -7 0 -18 -15 -26 -32z"/>
<path d="M1440 720 c0 -19 3 -21 12 -12 9 9 9 15 0 24 -9 9 -12 7 -12 -12z"/>
<path d="M1105 713 c-9 -9 -21 -27 -26 -40 -13 -34 -11 -137 2 -167 12 -25 66
-59 81 -50 16 10 7 22 -18 22 -39 0 -56 23 -60 84 l-3 55 47 -15 c26 -9 50
-20 54 -26 4 -6 8 14 8 45 0 85 -44 133 -85 92z m59 -25 c9 -12 16 -37 16 -54
l0 -32 -48 15 c-27 9 -49 22 -49 29 0 8 4 14 9 14 5 0 7 4 3 9 -7 12 22 41 40
41 8 0 21 -10 29 -22z"/>
<path d="M1845 720 c-3 -5 -3 -90 1 -187 4 -98 10 -167 14 -153 3 14 4 53 3
87 -3 40 0 64 8 69 8 5 9 3 4 -7 -7 -11 -6 -12 6 -2 27 21 48 -6 63 -80 14
-67 33 -112 22 -52 -4 17 -9 48 -13 70 -3 22 -12 49 -19 59 -11 17 -11 22 0
35 13 15 19 55 17 109 -1 12 -10 31 -21 42 -21 21 -74 27 -85 10z m85 -29 c16
-31 12 -102 -7 -123 -18 -21 -59 -24 -65 -5 -3 6 -5 42 -6 80 l-1 67 34 0 c24
0 38 -6 45 -19z"/>
<path d="M2574 716 c3 -10 9 -58 13 -105 6 -96 -4 -131 -38 -131 -22 0 -49 52
-48 92 1 36 -12 101 -23 118 -8 13 -9 13 -5 -1 3 -8 8 -47 12 -85 4 -38 16
-88 27 -111 18 -39 21 -41 44 -31 13 6 24 15 24 19 0 5 7 6 16 2 15 -5 16 2
10 68 -7 91 -21 167 -31 177 -5 4 -5 -1 -1 -12z"/>
<path d="M2251 683 c-1 -18 -6 -33 -12 -33 -5 0 -7 -5 -4 -10 4 -6 10 -8 14
-5 5 2 12 -37 15 -88 9 -117 14 -135 38 -148 13 -7 18 -7 14 -1 -3 6 0 13 6
15 7 3 3 6 -9 6 -13 1 -23 7 -24 14 0 6 -2 21 -4 32 -2 11 -7 57 -11 103 -6
77 -5 83 11 80 10 -2 20 2 22 8 2 6 -6 10 -19 10 -15 -1 -24 7 -29 24 -6 23
-7 23 -8 -7z"/>
<path d="M1350 686 c0 -8 -6 -17 -12 -19 -10 -4 -10 -7 -1 -14 8 -6 13 -47 15
-122 3 -105 5 -115 26 -129 20 -13 22 -13 16 1 -3 8 -11 18 -19 21 -10 3 -13
32 -12 114 1 109 1 110 24 106 13 -3 23 0 23 6 0 5 -12 10 -26 10 -19 0 -25 4
-21 15 4 8 2 17 -3 20 -6 4 -10 0 -10 -9z"/>
<path d="M1242 678 c-21 -21 -15 -92 9 -114 28 -25 41 -59 33 -89 -8 -31 -32
-40 -55 -19 -21 19 -27 6 -7 -14 15 -15 58 -16 58 -1 0 5 4 8 9 5 4 -3 8 17 7
44 -2 36 -8 56 -25 74 -42 45 -35 129 9 106 28 -15 38 -11 16 5 -24 18 -38 19
-54 3z"/>
<path d="M2357 672 c-10 -10 -17 -23 -17 -28 0 -5 5 -1 11 9 12 20 42 23 56 5
6 -7 13 -25 17 -39 5 -23 1 -28 -24 -39 -37 -15 -50 -37 -50 -85 0 -65 38 -98
70 -60 6 8 17 13 23 12 7 -1 11 4 9 11 -1 7 -4 37 -6 65 -6 81 -17 130 -34
150 -19 22 -35 22 -55 -1z m73 -154 c0 -60 -21 -93 -50 -78 -26 14 -24 96 4
115 37 26 46 19 46 -37z"/>
<path d="M1440 565 c0 -49 3 -86 6 -83 7 8 7 159 -1 166 -3 3 -5 -34 -5 -83z"/>
<path d="M2149 634 c-17 -21 -15 -77 5 -106 9 -12 16 -19 16 -14 0 5 9 1 20
-9 24 -21 27 -77 5 -95 -8 -6 -23 -9 -35 -5 -30 10 -24 -2 11 -21 17 -8 28
-11 25 -5 -4 6 -3 11 3 11 13 0 25 39 22 75 -1 20 -14 40 -38 61 -25 22 -34
37 -30 48 4 11 3 15 -4 10 -8 -4 -9 1 -4 17 10 31 10 32 39 32 14 0 23 3 20 8
-9 14 -40 10 -55 -7z"/>
<path d="M1484 620 c33 -167 51 -238 58 -234 4 3 8 14 8 25 0 10 3 19 8 19 4
0 8 16 9 36 1 19 7 42 14 50 6 8 9 14 6 14 -3 0 1 23 8 50 7 28 10 50 6 50 -4
0 -18 -45 -31 -100 -13 -55 -27 -100 -30 -100 -6 0 -34 126 -35 160 -1 8 -7
24 -14 35 -12 19 -12 19 -7 -5z"/>
<path d="M2015 616 c-25 -25 -29 -46 -26 -135 3 -78 41 -122 91 -106 32 10 23
21 -14 17 -30 -4 -36 0 -50 27 -9 17 -15 44 -14 61 2 29 3 30 56 30 l54 0 -6
38 c-7 38 -34 83 -54 90 -6 2 -23 -8 -37 -22z m49 -2 c9 -3 14 -10 11 -14 -3
-5 -1 -11 5 -15 5 -3 10 -17 10 -29 0 -18 -7 -25 -31 -30 -43 -8 -71 -8 -65 2
3 5 7 21 10 36 8 47 28 62 60 50z"/>
<path d="M1645 606 c-23 -34 -30 -118 -15 -171 13 -48 26 -63 56 -68 10 -1 26
-7 34 -11 8 -5 12 -6 8 -1 -4 4 -3 14 3 21 8 10 4 12 -24 7 -29 -4 -37 -1 -50
18 -18 29 -31 96 -20 102 4 2 31 1 60 -2 l52 -7 -4 37 c-9 89 -64 130 -100 75z
m65 -8 c11 -12 20 -34 20 -50 0 -27 -2 -28 -50 -28 -46 0 -63 11 -40 25 5 3 7
12 3 20 -3 8 1 15 8 15 7 0 9 3 6 7 -8 7 11 33 24 33 4 0 17 -10 29 -22z"/>
<path d="M1430 433 c0 -43 8 -40 14 5 2 18 -1 32 -5 32 -5 0 -9 -16 -9 -37z"/>
</g>
</svg>
